<?xml version="1.0" encoding="utf-8"?>
<!-- Generator: Adobe Illustrator 26.0.3, SVG Export Plug-In . SVG Version: 6.00 Build 0)  -->
<svg version="1.1" id="레이어_1" xmlns="http://www.w3.org/2000/svg" xmlns:xlink="http://www.w3.org/1999/xlink" x="0px"
	 y="0px" viewBox="0 300 570 230">
<style type="text/css">
	.st0{fill:#f5f5f5;}
</style>
<g>
	<path class="st0" d="M45.81,356.76c12.75,0,22.61,7.04,29.58,21.13c-0.77,2.82-2.74,4.23-5.9,4.23
		c-6.44-10.15-12.07-15.23-16.9-15.23c-1.27,0-2.4-0.28-3.39-0.84c-10.56,0-17.88,3.67-21.96,11c0,1.27-0.28,2.38-0.84,3.34
		l0.84,3.39l-0.84,5.06c5.67,3.99,8.76,6.81,9.29,8.45c4.49,0,15.18,4.8,32.09,14.4c2.26,4.15,3.95,8.65,5.06,13.51
		c0,13.75-5.91,22.47-17.74,26.19c0,1.11-3.65,2.24-10.96,3.39v-0.84l-1.72,0.84c-12.23-2.26-20.68-5.65-25.35-10.17l-5.9-10.96
		c0.56-2.07,1.69-3.76,3.39-5.06c6.19,1.7,9.29,4.52,9.29,8.45c4.12,3.68,10.88,5.93,20.29,6.73c11.83-4.3,17.74-10.22,17.74-17.74
		v-2.51c0-3.65-3.39-6.47-10.17-8.45c-20.83-9.01-31.25-15.49-31.25-19.46c-2.04-0.65-3.45-6.01-4.23-16.07
		c0.31-5.02,2.85-9.8,7.62-14.35C27.84,359.58,35.17,356.76,45.81,356.76z"/>
	<path class="st0" d="M105.86,390.38c13.71,0,22.47,4.54,26.28,13.61c1.7,5.36,2.55,8.75,2.55,10.17c0,11.86-4.24,21.19-12.72,28
		c-5.23,2.26-8.9,3.39-11,3.39h-5.11c-10.19,0-18.67-3.11-25.45-9.33c-2.82-6.13-4.23-11.79-4.23-17c0-12.78,4.81-21.27,14.44-25.45
		C93.97,393.77,99.05,392.64,105.86,390.38z M86.36,416.71v10.17c1.02,2.88,6.39,5.42,16.11,7.62h4.27
		c5.26-0.53,9.78-3.06,13.56-7.62c2.82-6.84,4.23-11.66,4.23-14.44v-1.67c0-6.22-3.96-9.33-11.89-9.33
		c-12.14,0-20.04,2.54-23.73,7.62C87.21,413.14,86.36,415.69,86.36,416.71z"/>
	<path class="st0" d="M160.85,391.4h4.23c7.89,0,14.08,3.37,18.57,10.12v2.55l-2.51,1.67h-1.72c-7.71-2.82-12.49-4.23-14.35-4.23
		c-10.8,0-17.29,7.62-19.46,22.85v3.34c4.02,6.78,8.82,10.17,14.4,10.17l5.06-0.84v0.84c5.63,0,11.27-3.09,16.9-9.29
		c0.99-0.59,2.12-0.88,3.39-0.88c3.62,0,5.87,2.54,6.73,7.62c-5.26,9.01-13.99,13.51-26.19,13.51c-2.17,0.59-4.43,0.88-6.78,0.88
		c-8.85-2.6-15.88-7.96-21.08-16.07c-1.7-5.36-2.55-8.73-2.55-10.12c0-13.68,5.36-23.84,16.07-30.46
		C153.76,391.96,156.85,391.4,160.85,391.4z"/>
	<path class="st0" d="M194.61,386.99c14.67,0.59,24.56,0.88,29.67,0.88c2.26,0,4.52,1.69,6.78,5.06v2.55l-2.55,3.39l-4.23-0.84
		h-4.27c-1.89,0-3.3,0.28-4.23,0.84c-15.26,0-22.89-2.26-22.89-6.78v-3.39C193.08,387.57,193.65,386.99,194.61,386.99z M209,403.99
		h0.84c4.52,0,6.78,2.26,6.78,6.78c2.26,18.48,3.39,31.2,3.39,38.17l-2.51,1.67h-0.88c-5.08,0-7.62-5.65-7.62-16.95
		c-1.11-11.83-1.67-21.44-1.67-28.84L209,403.99z"/>
	<path class="st0" d="M255.49,382.12c10.99,0,21.7,10.99,32.13,32.97c4.98,5.76,12.3,11.67,21.96,17.74
		c1.7,2.17,2.55,3.85,2.55,5.06c-0.81,2.82-2.79,4.23-5.94,4.23c-13.59-8.95-22.04-16.27-25.35-21.96h-1.67
		c-8.45,10.37-13.23,15.71-14.35,16.02c-5.73,2.82-9.12,4.23-10.17,4.23h-2.51c-13.53,0-20.29-7.88-20.29-23.64
		c0-15.45,7.04-26.99,21.13-34.64H255.49z M241.98,426.04c1.67,2.26,4.49,3.39,8.45,3.39c8.08-3.16,13.99-7.94,17.74-14.35
		c1.7-3.75,2.55-6.28,2.55-7.62v-0.84c0-6.93-4.5-11.45-13.51-13.56h-0.84C246.78,399.33,241.98,410.32,241.98,426.04z"/>
	<path class="st0" d="M315.49,364.1c6.22,0,9.33,6.5,9.33,19.5v21.22c0,0.56,0.28,0.84,0.84,0.84c0,0.56-0.28,0.84-0.84,0.84
		c0.77,10.25,1.33,16.19,1.67,17.83c-0.56,3.06-0.84,5.6-0.84,7.62c0,5.63,0.28,12.43,0.84,20.38c-0.34,2.82-2.03,4.23-5.06,4.23
		c-4.52-0.25-6.78-2.51-6.78-6.78c0-3.13,0.28-7.09,0.84-11.89c-0.56-7.03-0.84-14.08-0.84-21.17h0.84l-0.84-1.72v-28.84
		c0-5.67-0.57-12.74-1.72-21.22C313.52,364.94,314.38,364.66,315.49,364.1z"/>
	<path class="st0" d="M367.23,370.28c2.26,0.43,3.39,1.01,3.39,1.72l5.9-0.88h10.12c8.02,1.08,16.75,4.75,26.19,11
		c10.15,10.34,15.23,18.51,15.23,24.52v8.45c0,13.93-8.45,27.44-25.35,40.54c-1.3,0-3.84,1.41-7.62,4.23
		c-10.53,3.37-18.12,5.06-22.8,5.06c-6.94-1.67-10.88-3.36-11.84-5.06l0.83-1.67c-0.56-5.76-0.83-10.28-0.83-13.56h0.83
		c0-0.56-0.28-0.84-0.83-0.84c-0.56-10.4-0.84-18-0.84-22.8v-2.55c0-1.89,0.28-3.3,0.84-4.23l-0.84-3.34
		c0.56-17.3,0.84-29.15,0.84-35.52C360.88,371.96,363.14,370.28,367.23,370.28z M372.29,382.95v28.74c0,2.66,0.28,5.48,0.84,8.45
		l-0.84,5.06c0,19.72,1.13,29.58,3.39,29.58c13.93,0,26.31-9.58,37.15-28.74c1.15-4.24,1.72-8.19,1.72-11.84v-9.29
		c0-3.81-3.39-8.87-10.17-15.18c-3.87-3.4-10.34-6.22-19.41-8.45h-11.01C372.85,381.44,372.29,381.99,372.29,382.95z"/>
	<path class="st0" d="M458.53,390.38c13.71,0,22.47,4.54,26.28,13.61c1.7,5.36,2.55,8.75,2.55,10.17c0,11.86-4.24,21.19-12.72,28
		c-5.23,2.26-8.9,3.39-11,3.39h-5.11c-10.18,0-18.67-3.11-25.45-9.33c-2.82-6.13-4.23-11.79-4.23-17c0-12.78,4.81-21.27,14.44-25.45
		C446.64,393.77,451.72,392.64,458.53,390.38z M439.02,416.71v10.17c1.02,2.88,6.39,5.42,16.11,7.62h4.27
		c5.26-0.53,9.78-3.06,13.56-7.62c2.82-6.84,4.23-11.66,4.23-14.44v-1.67c0-6.22-3.96-9.33-11.89-9.33
		c-12.14,0-20.04,2.54-23.73,7.62C439.88,413.14,439.02,415.69,439.02,416.71z"/>
	<path class="st0" d="M512.77,376.82h5.06c2.94,0,8.61,2.26,17,6.78c6.19,0,9.29,9.33,9.29,28c1.14,2.97,1.72,8.92,1.72,17.83
		c0,16.62-2.54,26.24-7.62,28.84c0,2.57-2.83,4.54-8.5,5.9h-22.06c-6.16-1.33-12.66-8.11-19.5-20.34v-1.67
		c0-1.42,1.13-2.28,3.39-2.55c2.69,0,7.21,4.24,13.56,12.72c2.85,1.11,4.27,1.97,4.27,2.55l4.23-0.88h11
		c7.37-3.38,11.05-11.56,11.05-24.56c0.56-1.11,0.84-1.97,0.84-2.55c-0.96-8.48-2.09-12.72-3.39-12.72
		c-4.95,6.22-9.47,9.33-13.56,9.33h-8.5c-7.93-1.73-11.89-6.25-11.89-13.56v-5.94C499.16,391.36,503.7,382.3,512.77,376.82z
		 M508.5,409.93v1.67c0.19,1.15,0.76,1.72,1.72,1.72h2.55c7.03,0,13.53-5.67,19.5-17v-0.84c0-4.64-3.96-7.75-11.89-9.33
		C514.53,386.16,510.57,394.08,508.5,409.93z"/>
</g>
</svg>
